<mxfile host="app.diagrams.net" modified="2024-03-14T17:01:15.463Z" agent="Mozilla/5.0 (Windows NT 10.0; Win64; x64) AppleWebKit/537.36 (KHTML, like Gecko) Chrome/122.0.0.0 Safari/537.36" etag="5xOP6jqL331CZyjx3Ydy" version="24.0.6" type="github">
  <diagram name="Page-1" id="0783ab3e-0a74-02c8-0abd-f7b4e66b4bec">
    <mxGraphModel dx="1509" dy="785" grid="1" gridSize="10" guides="1" tooltips="1" connect="1" arrows="1" fold="1" page="1" pageScale="1" pageWidth="850" pageHeight="1100" background="none" math="0" shadow="0">
      <root>
        <mxCell id="0" />
        <mxCell id="1" parent="0" />
        <mxCell id="1c1d494c118603dd-1" value="Pool" style="swimlane;html=1;childLayout=stackLayout;startSize=20;rounded=0;shadow=0;comic=0;labelBackgroundColor=none;strokeWidth=1;fontFamily=Verdana;fontSize=12;align=center;" parent="1" vertex="1">
          <mxGeometry x="40" y="20" width="660" height="730" as="geometry" />
        </mxCell>
        <mxCell id="1c1d494c118603dd-3" value="система" style="swimlane;html=1;startSize=20;" parent="1c1d494c118603dd-1" vertex="1">
          <mxGeometry y="20" width="250" height="710" as="geometry" />
        </mxCell>
        <mxCell id="jq8Ooqz2yySnKF2LfUtu-45" style="edgeStyle=orthogonalEdgeStyle;rounded=0;orthogonalLoop=1;jettySize=auto;html=1;" edge="1" parent="1c1d494c118603dd-3" source="jq8Ooqz2yySnKF2LfUtu-42">
          <mxGeometry relative="1" as="geometry">
            <mxPoint x="125" y="570" as="targetPoint" />
          </mxGeometry>
        </mxCell>
        <mxCell id="jq8Ooqz2yySnKF2LfUtu-42" value="выполнить запрос" style="rounded=1;whiteSpace=wrap;html=1;shadow=0;comic=0;labelBackgroundColor=none;strokeWidth=1;fontFamily=Verdana;fontSize=12;align=center;arcSize=50;" vertex="1" parent="1c1d494c118603dd-3">
          <mxGeometry x="35" y="480" width="180" height="40" as="geometry" />
        </mxCell>
        <mxCell id="jq8Ooqz2yySnKF2LfUtu-44" value="вернуть результат" style="rounded=1;whiteSpace=wrap;html=1;shadow=0;comic=0;labelBackgroundColor=none;strokeWidth=1;fontFamily=Verdana;fontSize=12;align=center;arcSize=50;" vertex="1" parent="1c1d494c118603dd-3">
          <mxGeometry x="35" y="570" width="180" height="30" as="geometry" />
        </mxCell>
        <mxCell id="1c1d494c118603dd-4" value="тестировщик" style="swimlane;html=1;startSize=20;" parent="1c1d494c118603dd-1" vertex="1">
          <mxGeometry x="250" y="20" width="410" height="710" as="geometry" />
        </mxCell>
        <mxCell id="1c1d494c118603dd-27" style="edgeStyle=orthogonalEdgeStyle;rounded=0;html=1;labelBackgroundColor=none;startArrow=none;startFill=0;startSize=5;endArrow=classicThin;endFill=1;endSize=5;jettySize=auto;orthogonalLoop=1;strokeWidth=1;fontFamily=Verdana;fontSize=12" parent="1c1d494c118603dd-4" source="60571a20871a0731-4" target="60571a20871a0731-8" edge="1">
          <mxGeometry relative="1" as="geometry" />
        </mxCell>
        <mxCell id="60571a20871a0731-4" value="" style="ellipse;whiteSpace=wrap;html=1;rounded=0;shadow=0;comic=0;labelBackgroundColor=none;strokeWidth=1;fillColor=#000000;fontFamily=Verdana;fontSize=12;align=center;" parent="1c1d494c118603dd-4" vertex="1">
          <mxGeometry x="185" y="40" width="40" height="40" as="geometry" />
        </mxCell>
        <mxCell id="60571a20871a0731-8" value="запустить приложение" style="rounded=1;whiteSpace=wrap;html=1;shadow=0;comic=0;labelBackgroundColor=none;strokeWidth=1;fontFamily=Verdana;fontSize=12;align=center;arcSize=50;" parent="1c1d494c118603dd-4" vertex="1">
          <mxGeometry x="155" y="100" width="100" height="30" as="geometry" />
        </mxCell>
        <mxCell id="jq8Ooqz2yySnKF2LfUtu-25" style="edgeStyle=orthogonalEdgeStyle;rounded=0;orthogonalLoop=1;jettySize=auto;html=1;entryX=0.5;entryY=0;entryDx=0;entryDy=0;" edge="1" parent="1c1d494c118603dd-4" source="60571a20871a0731-3" target="jq8Ooqz2yySnKF2LfUtu-15">
          <mxGeometry relative="1" as="geometry">
            <Array as="points">
              <mxPoint x="80" y="230" />
              <mxPoint x="80" y="230" />
            </Array>
          </mxGeometry>
        </mxCell>
        <mxCell id="jq8Ooqz2yySnKF2LfUtu-26" style="edgeStyle=orthogonalEdgeStyle;rounded=0;orthogonalLoop=1;jettySize=auto;html=1;" edge="1" parent="1c1d494c118603dd-4" source="60571a20871a0731-3" target="jq8Ooqz2yySnKF2LfUtu-18">
          <mxGeometry relative="1" as="geometry">
            <Array as="points">
              <mxPoint x="140" y="350" />
            </Array>
          </mxGeometry>
        </mxCell>
        <mxCell id="jq8Ooqz2yySnKF2LfUtu-27" style="edgeStyle=orthogonalEdgeStyle;rounded=0;orthogonalLoop=1;jettySize=auto;html=1;entryX=0.5;entryY=0;entryDx=0;entryDy=0;" edge="1" parent="1c1d494c118603dd-4" source="60571a20871a0731-3" target="jq8Ooqz2yySnKF2LfUtu-20">
          <mxGeometry relative="1" as="geometry">
            <Array as="points">
              <mxPoint x="210" y="230" />
              <mxPoint x="210" y="230" />
            </Array>
          </mxGeometry>
        </mxCell>
        <mxCell id="jq8Ooqz2yySnKF2LfUtu-28" style="edgeStyle=orthogonalEdgeStyle;rounded=0;orthogonalLoop=1;jettySize=auto;html=1;" edge="1" parent="1c1d494c118603dd-4" source="60571a20871a0731-3" target="jq8Ooqz2yySnKF2LfUtu-21">
          <mxGeometry relative="1" as="geometry">
            <Array as="points">
              <mxPoint x="330" y="230" />
              <mxPoint x="330" y="230" />
            </Array>
          </mxGeometry>
        </mxCell>
        <mxCell id="jq8Ooqz2yySnKF2LfUtu-29" style="edgeStyle=orthogonalEdgeStyle;rounded=0;orthogonalLoop=1;jettySize=auto;html=1;" edge="1" parent="1c1d494c118603dd-4" source="60571a20871a0731-3" target="jq8Ooqz2yySnKF2LfUtu-19">
          <mxGeometry relative="1" as="geometry">
            <Array as="points">
              <mxPoint x="270" y="350" />
            </Array>
          </mxGeometry>
        </mxCell>
        <mxCell id="jq8Ooqz2yySnKF2LfUtu-30" style="edgeStyle=orthogonalEdgeStyle;rounded=0;orthogonalLoop=1;jettySize=auto;html=1;entryX=0.5;entryY=0;entryDx=0;entryDy=0;" edge="1" parent="1c1d494c118603dd-4" source="60571a20871a0731-3" target="jq8Ooqz2yySnKF2LfUtu-17">
          <mxGeometry relative="1" as="geometry">
            <Array as="points">
              <mxPoint x="150" y="310" />
              <mxPoint x="205" y="310" />
            </Array>
          </mxGeometry>
        </mxCell>
        <mxCell id="60571a20871a0731-3" value="" style="whiteSpace=wrap;html=1;rounded=0;shadow=0;comic=0;labelBackgroundColor=none;strokeWidth=1;fillColor=#000000;fontFamily=Verdana;fontSize=12;align=center;rotation=0;" parent="1c1d494c118603dd-4" vertex="1">
          <mxGeometry x="30" y="210" width="350" height="10" as="geometry" />
        </mxCell>
        <mxCell id="1c1d494c118603dd-28" style="edgeStyle=orthogonalEdgeStyle;rounded=0;html=1;entryX=0.5;entryY=0;labelBackgroundColor=none;startArrow=none;startFill=0;startSize=5;endArrow=classicThin;endFill=1;endSize=5;jettySize=auto;orthogonalLoop=1;strokeWidth=1;fontFamily=Verdana;fontSize=12" parent="1c1d494c118603dd-4" source="60571a20871a0731-8" target="60571a20871a0731-3" edge="1">
          <mxGeometry relative="1" as="geometry">
            <Array as="points">
              <mxPoint x="205" y="150" />
              <mxPoint x="205" y="150" />
            </Array>
          </mxGeometry>
        </mxCell>
        <mxCell id="jq8Ooqz2yySnKF2LfUtu-36" style="edgeStyle=orthogonalEdgeStyle;rounded=0;orthogonalLoop=1;jettySize=auto;html=1;entryX=0;entryY=0.5;entryDx=0;entryDy=0;" edge="1" parent="1c1d494c118603dd-4" source="jq8Ooqz2yySnKF2LfUtu-15" target="jq8Ooqz2yySnKF2LfUtu-33">
          <mxGeometry relative="1" as="geometry">
            <Array as="points">
              <mxPoint x="10" y="275" />
              <mxPoint x="10" y="435" />
            </Array>
          </mxGeometry>
        </mxCell>
        <mxCell id="jq8Ooqz2yySnKF2LfUtu-15" value="запросить пользователей с id = 1 и 3" style="rounded=1;whiteSpace=wrap;html=1;shadow=0;comic=0;labelBackgroundColor=none;strokeWidth=1;fontFamily=Verdana;fontSize=12;align=center;arcSize=50;" vertex="1" parent="1c1d494c118603dd-4">
          <mxGeometry x="30" y="250" width="100" height="50" as="geometry" />
        </mxCell>
        <mxCell id="jq8Ooqz2yySnKF2LfUtu-37" style="edgeStyle=orthogonalEdgeStyle;rounded=0;orthogonalLoop=1;jettySize=auto;html=1;entryX=0.5;entryY=0;entryDx=0;entryDy=0;" edge="1" parent="1c1d494c118603dd-4" source="jq8Ooqz2yySnKF2LfUtu-17" target="jq8Ooqz2yySnKF2LfUtu-33">
          <mxGeometry relative="1" as="geometry" />
        </mxCell>
        <mxCell id="jq8Ooqz2yySnKF2LfUtu-17" value="запросит минимальный и максимальный счёт" style="rounded=1;whiteSpace=wrap;html=1;shadow=0;comic=0;labelBackgroundColor=none;strokeWidth=1;fontFamily=Verdana;fontSize=12;align=center;arcSize=50;" vertex="1" parent="1c1d494c118603dd-4">
          <mxGeometry x="155" y="320" width="100" height="60" as="geometry" />
        </mxCell>
        <mxCell id="jq8Ooqz2yySnKF2LfUtu-19" value="запросить общий вес покупателей мужского пола" style="rounded=1;whiteSpace=wrap;html=1;shadow=0;comic=0;labelBackgroundColor=none;strokeWidth=1;fontFamily=Verdana;fontSize=12;align=center;arcSize=50;" vertex="1" parent="1c1d494c118603dd-4">
          <mxGeometry x="280" y="320" width="110" height="60" as="geometry" />
        </mxCell>
        <mxCell id="jq8Ooqz2yySnKF2LfUtu-18" value="запросить кол-во покупателей женского пола" style="rounded=1;whiteSpace=wrap;html=1;shadow=0;comic=0;labelBackgroundColor=none;strokeWidth=1;fontFamily=Verdana;fontSize=12;align=center;arcSize=50;" vertex="1" parent="1c1d494c118603dd-4">
          <mxGeometry x="30" y="320" width="100" height="60" as="geometry" />
        </mxCell>
        <mxCell id="jq8Ooqz2yySnKF2LfUtu-20" value="запросить пользователей города Пинск" style="rounded=1;whiteSpace=wrap;html=1;shadow=0;comic=0;labelBackgroundColor=none;strokeWidth=1;fontFamily=Verdana;fontSize=12;align=center;arcSize=50;" vertex="1" parent="1c1d494c118603dd-4">
          <mxGeometry x="160" y="250" width="100" height="50" as="geometry" />
        </mxCell>
        <mxCell id="jq8Ooqz2yySnKF2LfUtu-39" style="edgeStyle=orthogonalEdgeStyle;rounded=0;orthogonalLoop=1;jettySize=auto;html=1;entryX=1;entryY=0.5;entryDx=0;entryDy=0;" edge="1" parent="1c1d494c118603dd-4" source="jq8Ooqz2yySnKF2LfUtu-21" target="jq8Ooqz2yySnKF2LfUtu-33">
          <mxGeometry relative="1" as="geometry">
            <Array as="points">
              <mxPoint x="400" y="275" />
              <mxPoint x="400" y="435" />
            </Array>
          </mxGeometry>
        </mxCell>
        <mxCell id="jq8Ooqz2yySnKF2LfUtu-21" value="запросить&lt;div&gt;данные всех покупателей&lt;/div&gt;" style="rounded=1;whiteSpace=wrap;html=1;shadow=0;comic=0;labelBackgroundColor=none;strokeWidth=1;fontFamily=Verdana;fontSize=12;align=center;arcSize=50;" vertex="1" parent="1c1d494c118603dd-4">
          <mxGeometry x="280" y="250" width="100" height="50" as="geometry" />
        </mxCell>
        <mxCell id="jq8Ooqz2yySnKF2LfUtu-33" value="" style="whiteSpace=wrap;html=1;rounded=0;shadow=0;comic=0;labelBackgroundColor=none;strokeWidth=1;fillColor=#000000;fontFamily=Verdana;fontSize=12;align=center;rotation=0;" vertex="1" parent="1c1d494c118603dd-4">
          <mxGeometry x="30" y="430" width="350" height="10" as="geometry" />
        </mxCell>
        <mxCell id="jq8Ooqz2yySnKF2LfUtu-35" style="edgeStyle=orthogonalEdgeStyle;rounded=0;orthogonalLoop=1;jettySize=auto;html=1;entryX=0.143;entryY=0.1;entryDx=0;entryDy=0;entryPerimeter=0;" edge="1" parent="1c1d494c118603dd-4" source="jq8Ooqz2yySnKF2LfUtu-18" target="jq8Ooqz2yySnKF2LfUtu-33">
          <mxGeometry relative="1" as="geometry" />
        </mxCell>
        <mxCell id="jq8Ooqz2yySnKF2LfUtu-38" style="edgeStyle=orthogonalEdgeStyle;rounded=0;orthogonalLoop=1;jettySize=auto;html=1;entryX=0.87;entryY=-0.15;entryDx=0;entryDy=0;entryPerimeter=0;" edge="1" parent="1c1d494c118603dd-4" source="jq8Ooqz2yySnKF2LfUtu-19" target="jq8Ooqz2yySnKF2LfUtu-33">
          <mxGeometry relative="1" as="geometry" />
        </mxCell>
        <mxCell id="jq8Ooqz2yySnKF2LfUtu-40" style="edgeStyle=orthogonalEdgeStyle;rounded=0;orthogonalLoop=1;jettySize=auto;html=1;entryX=0.664;entryY=-0.2;entryDx=0;entryDy=0;entryPerimeter=0;" edge="1" parent="1c1d494c118603dd-4" source="jq8Ooqz2yySnKF2LfUtu-20" target="jq8Ooqz2yySnKF2LfUtu-33">
          <mxGeometry relative="1" as="geometry">
            <Array as="points">
              <mxPoint x="262" y="275" />
              <mxPoint x="262" y="365" />
            </Array>
          </mxGeometry>
        </mxCell>
        <mxCell id="jq8Ooqz2yySnKF2LfUtu-77" value="получить результат" style="rounded=1;whiteSpace=wrap;html=1;shadow=0;comic=0;labelBackgroundColor=none;strokeWidth=1;fontFamily=Verdana;fontSize=12;align=center;arcSize=50;" vertex="1" parent="1c1d494c118603dd-4">
          <mxGeometry x="110" y="620" width="180" height="30" as="geometry" />
        </mxCell>
        <mxCell id="jq8Ooqz2yySnKF2LfUtu-43" style="edgeStyle=orthogonalEdgeStyle;rounded=0;orthogonalLoop=1;jettySize=auto;html=1;entryX=0.5;entryY=0;entryDx=0;entryDy=0;" edge="1" parent="1c1d494c118603dd-1" source="jq8Ooqz2yySnKF2LfUtu-33" target="jq8Ooqz2yySnKF2LfUtu-42">
          <mxGeometry relative="1" as="geometry">
            <Array as="points">
              <mxPoint x="455" y="470" />
              <mxPoint x="125" y="470" />
            </Array>
          </mxGeometry>
        </mxCell>
        <mxCell id="jq8Ooqz2yySnKF2LfUtu-78" style="edgeStyle=orthogonalEdgeStyle;rounded=0;orthogonalLoop=1;jettySize=auto;html=1;" edge="1" parent="1c1d494c118603dd-1" source="jq8Ooqz2yySnKF2LfUtu-44" target="jq8Ooqz2yySnKF2LfUtu-77">
          <mxGeometry relative="1" as="geometry" />
        </mxCell>
      </root>
    </mxGraphModel>
  </diagram>
</mxfile>
